<svg xmlns="http://www.w3.org/2000/svg" width="1600" height="1160" viewBox="0 0 1600 1160" role="img" aria-labelledby="title desc">
  <title id="title">Development Agent Ecosystem architecture</title>
  <desc id="desc">Workflow Orchestrator routes tasks, comments, pipeline exceptions, agent authority handoffs, and completed pull-request closure evidence. Pipeline ownership assigns monitoring to Pipeline Monitor, product remediation to Developer and Reviewer, ecosystem recovery to Health Check, and final publication to Knowledge Keeper. Orchestrator admits tasks up to configured capacity and gives every task/repository pair a full isolated clone with an exact run and lease manifest.</desc>
  <defs>
    <linearGradient id="background" x1="0" y1="0" x2="1" y2="1">
      <stop offset="0" stop-color="#071019"/>
      <stop offset="0.55" stop-color="#0c1420"/>
      <stop offset="1" stop-color="#10182a"/>
    </linearGradient>
    <linearGradient id="keeper" x1="0" y1="0" x2="1" y2="1">
      <stop offset="0" stop-color="#56e5b2"/>
      <stop offset="1" stop-color="#25b985"/>
    </linearGradient>
    <linearGradient id="agent" x1="0" y1="0" x2="1" y2="1">
      <stop offset="0" stop-color="#18283a"/>
      <stop offset="1" stop-color="#111d2b"/>
    </linearGradient>
    <linearGradient id="external" x1="0" y1="0" x2="1" y2="1">
      <stop offset="0" stop-color="#23213d"/>
      <stop offset="1" stop-color="#17182c"/>
    </linearGradient>
    <filter id="shadow" x="-20%" y="-20%" width="140%" height="140%">
      <feDropShadow dx="0" dy="18" stdDeviation="18" flood-color="#000814" flood-opacity="0.45"/>
    </filter>
    <marker id="arrowGreen" viewBox="0 0 10 10" refX="9" refY="5" markerWidth="7" markerHeight="7" orient="auto-start-reverse">
      <path d="M 0 0 L 10 5 L 0 10 z" fill="#62e7b8"/>
    </marker>
    <marker id="arrowBlue" viewBox="0 0 10 10" refX="9" refY="5" markerWidth="7" markerHeight="7" orient="auto-start-reverse">
      <path d="M 0 0 L 10 5 L 0 10 z" fill="#82aaff"/>
    </marker>
    <style>
      .title{font:700 50px 'Segoe UI',Arial,sans-serif;fill:#f4f8fc;letter-spacing:-1.5px}
      .subtitle{font:400 21px 'Segoe UI',Arial,sans-serif;fill:#9badc2}
      .eyebrow{font:700 14px 'Segoe UI',Arial,sans-serif;fill:#63e5b7;letter-spacing:3px}
      .box-title{font:700 24px 'Segoe UI',Arial,sans-serif;fill:#f4f8fc}
      .box-copy{font:400 16px 'Segoe UI',Arial,sans-serif;fill:#aebccd}
      .keeper-title{font:750 29px 'Segoe UI',Arial,sans-serif;fill:#061510}
      .keeper-copy{font:500 17px 'Segoe UI',Arial,sans-serif;fill:#0d3b2d}
      .label{font:600 14px 'Segoe UI',Arial,sans-serif;fill:#bfccda}
      .tiny{font:500 13px 'Segoe UI',Arial,sans-serif;fill:#8093a9}
      .edge{fill:none;stroke:#62e7b8;stroke-width:3;marker-end:url(#arrowGreen)}
      .edge-bi{fill:none;stroke:#62e7b8;stroke-width:3;marker-start:url(#arrowGreen);marker-end:url(#arrowGreen)}
      .edge-blue{fill:none;stroke:#82aaff;stroke-width:2.5;marker-end:url(#arrowBlue)}
      .edge-dashed{fill:none;stroke:#82aaff;stroke-width:2.5;stroke-dasharray:10 9;marker-end:url(#arrowBlue)}
    </style>
  </defs>

  <rect width="1600" height="1160" fill="url(#background)"/>
  <circle cx="210" cy="115" r="260" fill="#2ed69b" opacity="0.055"/>
  <circle cx="1440" cy="160" r="330" fill="#718dff" opacity="0.06"/>
  <path d="M0 790 C320 690 510 910 820 810 C1110 715 1260 760 1600 650 L1600 1160 L0 1160Z" fill="#101b2a" opacity="0.65"/>

  <text x="100" y="92" class="eyebrow">EVIDENCE-FIRST SOFTWARE DELIVERY</text>
  <text x="100" y="150" class="title">Development Agent Ecosystem</text>
  <text x="100" y="190" class="subtitle">Orchestrator routes intake and authority returns. Out-of-scope comments reroute automatically. Unclear scope stops.</text>

  <!-- External inputs -->
  <g filter="url(#shadow)">
    <rect x="80" y="285" width="285" height="130" rx="20" fill="url(#external)" stroke="#384164"/>
    <circle cx="120" cy="326" r="18" fill="#82aaff" opacity="0.18"/>
    <path d="M112 326h16M120 318v16" stroke="#9ab5ff" stroke-width="2.5" stroke-linecap="round"/>
    <text x="150" y="330" class="box-title">Azure Boards</text>
    <text x="110" y="368" class="box-copy">Tasks · requirements · comments</text>
    <text x="110" y="394" class="tiny">Assigned work items in manual or automate mode</text>

    <rect x="80" y="470" width="285" height="130" rx="20" fill="url(#external)" stroke="#384164"/>
    <circle cx="120" cy="511" r="18" fill="#82aaff" opacity="0.18"/>
    <path d="M111 507h18M111 515h13" stroke="#9ab5ff" stroke-width="2.5" stroke-linecap="round"/>
    <text x="150" y="515" class="box-title">Codebase</text>
    <text x="110" y="553" class="box-copy">Source · tests · local history</text>
    <text x="110" y="579" class="tiny">Repository evidence at an exact revision</text>

    <rect x="80" y="655" width="285" height="145" rx="20" fill="url(#external)" stroke="#384164"/>
    <circle cx="120" cy="696" r="18" fill="#82aaff" opacity="0.18"/>
    <path d="M111 691h18v12h-10l-5 5v-5h-3z" fill="none" stroke="#9ab5ff" stroke-width="2" stroke-linejoin="round"/>
    <text x="150" y="700" class="box-title">PR discussion</text>
    <text x="110" y="738" class="box-copy">Code changes · review threads</text>
    <text x="110" y="764" class="box-copy">User comments · local notes</text>
  </g>

  <!-- Orchestrator -->
  <g filter="url(#shadow)">
    <rect x="565" y="280" width="470" height="165" rx="28" fill="url(#keeper)"/>
    <text x="610" y="333" class="eyebrow" style="fill:#0e4937">CONTROL PLANE</text>
    <text x="610" y="375" class="keeper-title">Workflow Orchestrator</text>
    <text x="610" y="409" class="keeper-copy">Classifies tasks + general comments from JSON responsibilities</text>
    <text x="610" y="433" class="keeper-copy">Auto-routes authority returns · capacity leases · isolated clones</text>
  </g>

  <!-- Agents -->
  <g filter="url(#shadow)">
    <rect x="440" y="525" width="315" height="145" rx="22" fill="url(#agent)" stroke="#314459"/>
    <text x="475" y="571" class="eyebrow">ANALYZE</text>
    <text x="475" y="606" class="box-title">Requirements Analyst</text>
    <text x="475" y="638" class="box-copy">Ready scope · held scope · questions</text>

    <rect x="845" y="525" width="315" height="145" rx="22" fill="url(#agent)" stroke="#314459"/>
    <text x="880" y="571" class="eyebrow">IMPLEMENT</text>
    <text x="880" y="606" class="box-title">Developer</text>
    <text x="880" y="638" class="box-copy">Approved scope + stack engineering guidance</text>

    <rect x="440" y="750" width="315" height="145" rx="22" fill="url(#agent)" stroke="#314459"/>
    <text x="475" y="796" class="eyebrow">VERIFY</text>
    <text x="475" y="831" class="box-title">Reviewer</text>
    <text x="475" y="863" class="box-copy">Requirements + principles · no automatic fix</text>

    <rect x="845" y="750" width="315" height="145" rx="22" fill="url(#agent)" stroke="#314459"/>
    <text x="880" y="796" class="eyebrow">VALIDATE DELIVERY</text>
    <text x="880" y="831" class="box-title">Pipeline Monitor</text>
    <text x="880" y="863" class="box-copy">Guarded push · exact-SHA build</text>
    <text x="880" y="887" class="tiny">2h native PR gate · completed PR → Orchestrator</text>

    <rect x="642" y="940" width="315" height="135" rx="22" fill="#172d35" stroke="#4b8375"/>
    <text x="677" y="982" class="eyebrow">DIAGNOSE · SAFE REPAIR</text>
    <text x="677" y="1017" class="box-title">Health Check Agent</text>
    <text x="677" y="1049" class="box-copy">Safe repair · restart failed agent</text>
  </g>

  <!-- Right-side gates and storage -->
  <g filter="url(#shadow)">
    <rect x="1240" y="300" width="280" height="145" rx="22" fill="#152638" stroke="#3e6178"/>
    <text x="1275" y="346" class="eyebrow">KNOWLEDGE SERVICE</text>
    <text x="1275" y="382" class="box-title">Knowledge Keeper</text>
    <text x="1275" y="414" class="box-copy">On-demand knowledge + skills · final summary</text>
    <text x="1275" y="438" class="tiny">Successful outcomes · routed final publication only</text>

    <rect x="1240" y="470" width="280" height="78" rx="18" fill="#152638" stroke="#4b8375"/>
    <text x="1275" y="500" class="eyebrow">TASK CLONE CAPACITY</text>
    <text x="1275" y="530" class="box-copy">2 active by default · FIFO queue · full clones</text>

    <path d="M1380 545 l100 85 -100 85 -100 -85z" fill="#27213a" stroke="#7767a8" stroke-width="2"/>
    <text x="1380" y="613" text-anchor="middle" class="box-title" style="font-size:21px">Human review</text>
    <text x="1380" y="641" text-anchor="middle" class="box-copy">decision gate</text>
    <text x="1380" y="670" text-anchor="middle" class="tiny">approve · reject · defer</text>

    <rect x="1240" y="775" width="280" height="150" rx="22" fill="#152638" stroke="#4b8375"/>
    <text x="1275" y="820" class="eyebrow">OPERATOR CONTROL</text>
    <text x="1275" y="856" class="box-title">Task dashboard</text>
    <text x="1275" y="887" class="box-copy">Local diff · external PR reports</text>
    <text x="1275" y="912" class="tiny">live logs · capacity/queue/clone · close · reopen</text>
  </g>

  <!-- Flows -->
  <path class="edge-blue" d="M365 350 H565"/>
  <path class="edge-blue" d="M365 535 H440"/>
  <path class="edge-blue" d="M365 725 C400 725 405 820 440 820"/>

  <path class="edge-bi" d="M680 445 C650 475 620 492 605 525"/>
  <path class="edge" d="M920 445 C955 475 985 492 995 525"/>
  <path class="edge" d="M755 595 H845"/>
  <path class="edge-bi" d="M635 670 C650 708 655 720 640 750"/>
  <path class="edge-bi" d="M965 670 C950 708 945 720 960 750"/>
  <path class="edge-blue" d="M598 895 C610 925 665 930 705 940"/>
  <path class="edge-blue" d="M1002 895 C990 925 935 930 895 940"/>
  <path class="edge-bi" d="M800 445 C800 535 800 850 800 940"/>
  <path class="edge-dashed" d="M755 820 C930 710 1110 650 1280 630"/>
  <path class="edge" d="M1380 715 C1330 815 1230 840 1160 830"/>
  <path class="edge-bi" d="M1035 360 H1240"/>
  <path class="edge-blue" d="M1035 430 C1120 450 1160 505 1240 510"/>
  <path class="edge-bi" d="M1035 410 C1160 470 1135 850 1240 850"/>

  <text x="397" y="326" class="label">task + comments</text>
  <text x="770" y="578" class="label">ready scope</text>
  <text x="735" y="705" class="label">evidence</text>
  <text x="1070" y="703" class="label">push / code-test remediation</text>
  <text x="1008" y="739" class="label">PR complete → Orchestrator → final Keeper publication</text>
  <text x="1080" y="337" class="label">knowledge requests · successful outcomes</text>
  <text x="1080" y="475" class="label">task queue · branch/session ownership</text>
  <text x="1090" y="620" class="label">findings</text>
  <text x="1080" y="785" class="label">question ID · answer · command</text>
  <text x="815" y="918" class="label">guard stops after 3 · failure report · live recovery</text>

  <!-- Footer legend -->
  <line x1="1215" y1="1066" x2="1275" y2="1066" class="edge"/>
  <text x="1290" y="1072" class="tiny">agent handoff / verified flow</text>
  <line x1="1215" y1="1106" x2="1275" y2="1106" class="edge-dashed"/>
  <text x="1290" y="1112" class="tiny">human approval required</text>
</svg>
