<svg xmlns="http://www.w3.org/2000/svg" width="2700" height="1800" viewBox="0 0 2700 1800" role="img" aria-labelledby="title desc" text-rendering="geometricPrecision">
  <title id="title">Development Agent Ecosystem repository architecture</title>
  <desc id="desc">Enlarged repository architecture showing source-of-truth files, runtime compilation, seven custom agents, external systems, capacity-limited task leases, FIFO queueing, isolated full Git clones, pipeline ownership, and durable task state.</desc>
  <defs>
    <linearGradient id="bg" x1="0" y1="0" x2="1" y2="1">
      <stop offset="0" stop-color="#071019"/>
      <stop offset="0.55" stop-color="#0b1420"/>
      <stop offset="1" stop-color="#12192a"/>
    </linearGradient>
    <linearGradient id="source" x1="0" y1="0" x2="1" y2="1">
      <stop offset="0" stop-color="#1b3c35"/>
      <stop offset="1" stop-color="#112a28"/>
    </linearGradient>
    <linearGradient id="runtime" x1="0" y1="0" x2="1" y2="1">
      <stop offset="0" stop-color="#192b41"/>
      <stop offset="1" stop-color="#111e2e"/>
    </linearGradient>
    <linearGradient id="agent" x1="0" y1="0" x2="1" y2="1">
      <stop offset="0" stop-color="#253451"/>
      <stop offset="1" stop-color="#17243a"/>
    </linearGradient>
    <linearGradient id="external" x1="0" y1="0" x2="1" y2="1">
      <stop offset="0" stop-color="#342747"/>
      <stop offset="1" stop-color="#211b34"/>
    </linearGradient>
    <filter id="shadow" x="-20%" y="-20%" width="140%" height="150%">
      <feDropShadow dx="0" dy="18" stdDeviation="18" flood-color="#00050d" flood-opacity="0.45"/>
    </filter>
    <marker id="green" viewBox="0 0 10 10" refX="9" refY="5" markerWidth="8" markerHeight="8" orient="auto-start-reverse">
      <path d="M0 0L10 5L0 10z" fill="#5ee0b1"/>
    </marker>
    <marker id="blue" viewBox="0 0 10 10" refX="9" refY="5" markerWidth="8" markerHeight="8" orient="auto-start-reverse">
      <path d="M0 0L10 5L0 10z" fill="#83a7ff"/>
    </marker>
    <marker id="violet" viewBox="0 0 10 10" refX="9" refY="5" markerWidth="8" markerHeight="8" orient="auto-start-reverse">
      <path d="M0 0L10 5L0 10z" fill="#b59cff"/>
    </marker>
    <style>
      .title{font:700 62px 'Segoe UI',Arial,sans-serif;fill:#f5f8fc;letter-spacing:-1.8px}
      .subtitle{font:400 26px 'Segoe UI',Arial,sans-serif;fill:#98abc1}
      .lane{font:700 18px 'Segoe UI',Arial,sans-serif;fill:#66e3b5;letter-spacing:3px}
      .box-title{font:700 29px 'Segoe UI',Arial,sans-serif;fill:#f2f7fc}
      .copy{font:400 20px 'Segoe UI',Arial,sans-serif;fill:#adbdcf}
      .small{font:500 16px 'Segoe UI',Arial,sans-serif;fill:#8ea2b8}
      .mono{font:600 19px Consolas,'Segoe UI',monospace;fill:#d5e2ef}
      .agent-title{font:700 24px 'Segoe UI',Arial,sans-serif;fill:#f3f7fc}
      .agent-copy{font:400 17px 'Segoe UI',Arial,sans-serif;fill:#aebed1}
      .edge{fill:none;stroke:#5ee0b1;stroke-width:3.2;marker-end:url(#green)}
      .edge-bi{fill:none;stroke:#5ee0b1;stroke-width:3.2;marker-start:url(#green);marker-end:url(#green)}
      .edge-blue{fill:none;stroke:#83a7ff;stroke-width:3;marker-end:url(#blue)}
      .edge-violet{fill:none;stroke:#b59cff;stroke-width:3;marker-end:url(#violet)}
      .edge-dashed{fill:none;stroke:#83a7ff;stroke-width:2.8;stroke-dasharray:11 9;marker-end:url(#blue)}
      .label{font:600 15px 'Segoe UI',Arial,sans-serif;fill:#c1cfdd}
      .label-bg{fill:#101b28;stroke:#2e4257;stroke-width:1}
      .extend{fill:#102b25;stroke:#63e0b3;stroke-width:1.7;stroke-dasharray:7 5}
      .extend-text{font:700 14px 'Segoe UI',Arial,sans-serif;fill:#7aebc3;letter-spacing:.5px}
    </style>
  </defs>

  <rect width="2700" height="1800" fill="url(#bg)"/>
  <circle cx="170" cy="90" r="390" fill="#38d7a1" opacity="0.05"/>
  <circle cx="2480" cy="110" r="470" fill="#7d92ff" opacity="0.06"/>
  <text x="100" y="100" class="lane">REPOSITORY COMPOSITION AND RUNTIME FLOW</text>
  <text x="100" y="178" class="title">Development Agent Ecosystem</text>
  <text x="100" y="230" class="subtitle">Configuration, prompts, skills, runtime scripts, agents, task clones, knowledge, and Azure DevOps.</text>
  <rect x="2250" y="125" width="330" height="70" rx="18" class="extend"/>
  <text x="2290" y="170" class="extend-text" style="font-size:18px">+ EXTENSION POINT</text>

  <!-- Lane backgrounds -->
  <rect x="60" y="300" width="580" height="1420" rx="34" fill="#0c1722" stroke="#243343" stroke-width="2"/>
  <rect x="680" y="300" width="700" height="1420" rx="34" fill="#0d1724" stroke="#26374b" stroke-width="2"/>
  <rect x="1410" y="300" width="770" height="1420" rx="34" fill="#0e1727" stroke="#2a3850" stroke-width="2"/>
  <rect x="2210" y="300" width="430" height="1420" rx="34" fill="#121526" stroke="#393550" stroke-width="2"/>
  <text x="100" y="352" class="lane">01 · REPOSITORY SOURCES</text>
  <text x="720" y="352" class="lane">02 · RUNTIME AND COMPILATION</text>
  <text x="1450" y="352" class="lane">03 · CUSTOM AGENTS</text>
  <text x="2250" y="352" class="lane">04 · EXTERNAL STATE</text>

  <!-- Repository sources -->
  <g filter="url(#shadow)">
    <g data-card="config">
      <rect x="105" y="390" width="490" height="190" rx="24" fill="url(#source)" stroke="#32705d" stroke-width="2"/>
      <rect x="415" y="410" width="150" height="32" rx="10" class="extend"/>
      <text x="432" y="432" class="extend-text">+ REPOSITORIES</text>
      <text x="145" y="455" class="mono">config/agents.json</text>
      <text x="145" y="500" class="copy">Single canonical source of truth</text>
      <text x="145" y="535" class="small">Responsibilities · routing · clone capacity</text>
      <text x="145" y="561" class="small">Health policy · delivery allowlists</text>
    </g>

    <g data-card="prompts">
      <rect x="105" y="620" width="490" height="230" rx="24" fill="url(#source)" stroke="#32705d" stroke-width="2"/>
      <rect x="405" y="640" width="160" height="32" rx="10" class="extend"/>
      <text x="421" y="662" class="extend-text">+ PROMPT PATHS</text>
      <text x="145" y="685" class="mono">prompts/</text>
      <text x="145" y="730" class="copy">common/</text>
      <text x="255" y="730" class="small">evidence · protocol · approvals</text>
      <text x="145" y="770" class="copy">roles/</text>
      <text x="235" y="770" class="small">orchestrator · keeper · analyst</text>
      <text x="235" y="800" class="small">developer · reviewer · pipeline</text>
      <text x="235" y="828" class="small">health check</text>
    </g>

    <g data-card="skills">
      <rect x="105" y="890" width="490" height="300" rx="24" fill="url(#source)" stroke="#32705d" stroke-width="2"/>
      <rect x="425" y="910" width="140" height="32" rx="10" class="extend"/>
      <text x="446" y="932" class="extend-text">+ SKILL.MD</text>
      <text x="145" y="955" class="mono">plugins/.../skills/</text>
      <text x="145" y="1002" class="copy">Workflow and engineering skills</text>
      <text x="145" y="1038" class="small">Analyze · keep knowledge · implement</text>
      <text x="145" y="1068" class="small">Review · coordinate · monitor</text>
      <text x="145" y="1098" class="small">Diagnose ecosystem health</text>
      <text x="145" y="1142" class="copy">DRY · KISS · SOLID · .NET · JS · React</text>
      <text x="145" y="1172" class="small">Azure PR review and pipeline monitors</text>
    </g>

    <g data-card="knowledge">
      <rect x="105" y="1230" width="490" height="190" rx="24" fill="url(#source)" stroke="#32705d" stroke-width="2"/>
      <rect x="380" y="1250" width="185" height="32" rx="10" class="extend"/>
      <text x="397" y="1272" class="extend-text">+ KNOWLEDGE ROOT</text>
      <text x="145" y="1300" class="mono">knowledge/managed/</text>
      <text x="145" y="1345" class="copy">Versioned verified knowledge</text>
      <text x="145" y="1380" class="small">Seed import · provenance · decisions</text>
      <text x="145" y="1406" class="small">Global standards + repository context</text>
    </g>

    <g data-card="ui-docs">
      <rect x="105" y="1460" width="490" height="190" rx="24" fill="#122230" stroke="#30556c" stroke-width="2"/>
      <rect x="420" y="1480" width="145" height="32" rx="10" class="extend"/>
      <text x="441" y="1502" class="extend-text">+ UI / DOCS</text>
      <text x="145" y="1530" class="mono">dashboard/ + docs/</text>
      <text x="145" y="1575" class="copy">Operator UI and maintained guidance</text>
      <text x="145" y="1610" class="small">Task switching · architecture · runbooks</text>
      <text x="145" y="1636" class="small">Installation and rollback documentation</text>
    </g>
  </g>

  <!-- Runtime and compilation -->
  <g filter="url(#shadow)">
    <g data-card="module">
      <rect x="725" y="390" width="610" height="200" rx="25" fill="url(#runtime)" stroke="#355676" stroke-width="2"/>
      <rect x="1150" y="410" width="155" height="32" rx="10" class="extend"/>
      <text x="1168" y="432" class="extend-text">+ VALIDATORS</text>
      <text x="770" y="455" class="mono">AgentEcosystem.psm1</text>
      <text x="770" y="500" class="copy">Load configuration · expand paths · validate JSON</text>
      <text x="770" y="537" class="small">Reject plaintext secrets, unsafe policy, and missing files</text>
      <text x="770" y="566" class="small">Validate scheduler ranges and agent ownership</text>
    </g>

    <g data-card="compile">
      <rect x="725" y="630" width="610" height="210" rx="25" fill="url(#runtime)" stroke="#355676" stroke-width="2"/>
      <rect x="1120" y="650" width="185" height="32" rx="10" class="extend"/>
      <text x="1137" y="672" class="extend-text">+ COMPILE STEPS</text>
      <text x="770" y="695" class="mono">Sync-AgentDefinitions.ps1</text>
      <text x="770" y="742" class="copy">Compose role prompts and enabled skills</text>
      <text x="770" y="778" class="small">7 standard custom-agent TOML definitions</text>
      <text x="770" y="808" class="small">7 host-compatible profiles when policy requires them</text>
    </g>

    <g data-card="workflow">
      <rect x="725" y="880" width="610" height="300" rx="25" fill="url(#runtime)" stroke="#355676" stroke-width="2"/>
      <rect x="1140" y="900" width="165" height="32" rx="10" class="extend"/>
      <text x="1158" y="922" class="extend-text">+ WORKFLOWS</text>
      <text x="770" y="945" class="mono">Start-DevelopmentWorkflow.ps1</text>
      <text x="770" y="993" class="copy">Orchestrator routing and task execution host</text>
      <text x="770" y="1030" class="copy">Capacity-limited task clone ownership</text>
      <text x="770" y="1068" class="small">Switch-TaskWorkspace · exact run and lease</text>
      <text x="770" y="1098" class="small">FIFO admission · full clone manifests · heartbeat</text>
      <text x="770" y="1128" class="small">Event chain · reviewed push · pipeline remediation</text>
      <text x="770" y="1158" class="small">PR completion · final Keeper · Health retry</text>
    </g>

    <g data-card="review-runtime">
      <rect x="725" y="1220" width="610" height="230" rx="25" fill="url(#runtime)" stroke="#355676" stroke-width="2"/>
      <rect x="1115" y="1240" width="190" height="32" rx="10" class="extend"/>
      <text x="1132" y="1262" class="extend-text">+ REVIEW INPUTS</text>
      <text x="770" y="1285" class="mono">Review runtime</text>
      <text x="770" y="1332" class="copy">Sync config · collect per-PR discussions</text>
      <text x="770" y="1368" class="small">Per-PR fingerprint · pending AI or human state</text>
      <text x="770" y="1398" class="small">Changed-PR review · model-free PR status polling</text>
      <text x="770" y="1428" class="small">Line-aware local review comments and answers</text>
    </g>

    <g data-card="dashboard-runtime">
      <rect x="725" y="1490" width="610" height="160" rx="25" fill="#15263a" stroke="#416783" stroke-width="2"/>
      <rect x="1150" y="1510" width="155" height="32" rx="10" class="extend"/>
      <text x="1170" y="1532" class="extend-text">+ UI ROUTES</text>
      <text x="770" y="1555" class="mono">Start-AgentDashboard.ps1</text>
      <text x="770" y="1600" class="copy">Task switching · local/external review · live logs</text>
      <text x="770" y="1635" class="small">Capacity · queue · clone · close · reopen · resume</text>
    </g>
  </g>

  <!-- Custom agents -->
  <g filter="url(#shadow)">
    <rect x="1945" y="365" width="190" height="32" rx="10" class="extend"/>
    <text x="1967" y="387" class="extend-text">+ AGENT ROLE</text>

    <g data-card="orchestrator">
      <rect x="1455" y="390" width="335" height="230" rx="26" fill="url(#agent)" stroke="#4a6387" stroke-width="2"/>
      <text x="1495" y="440" class="lane">CONTROL PLANE</text>
      <text x="1495" y="485" class="agent-title">Workflow Orchestrator</text>
      <text x="1495" y="527" class="agent-copy">Task and comment routing</text>
      <text x="1495" y="557" class="agent-copy">Capacity admission</text>
      <text x="1495" y="587" class="agent-copy">Exact task/run/lease ownership</text>
    </g>

    <g data-card="keeper">
      <rect x="1825" y="390" width="335" height="230" rx="26" fill="url(#agent)" stroke="#4a6387" stroke-width="2"/>
      <text x="1865" y="440" class="lane">KNOWLEDGE</text>
      <text x="1865" y="485" class="agent-title">Knowledge Keeper</text>
      <text x="1865" y="527" class="agent-copy">On-demand context and skills</text>
      <text x="1865" y="557" class="agent-copy">Successful outcomes only</text>
      <text x="1865" y="587" class="agent-copy">Routed final summary</text>
    </g>

    <g data-card="analyst">
      <rect x="1455" y="660" width="335" height="210" rx="24" fill="url(#agent)" stroke="#4a6387" stroke-width="2"/>
      <text x="1495" y="710" class="agent-title">Requirements Analyst</text>
      <text x="1495" y="752" class="agent-copy">Ready and held scope</text>
      <text x="1495" y="782" class="agent-copy">Conflicts and questions</text>
      <text x="1495" y="812" class="agent-copy">Acceptance and sources</text>
      <text x="1495" y="842" class="agent-copy">Human-readable plan</text>
    </g>

    <g data-card="developer">
      <rect x="1825" y="660" width="335" height="210" rx="24" fill="url(#agent)" stroke="#4a6387" stroke-width="2"/>
      <text x="1865" y="710" class="agent-title">Developer</text>
      <text x="1865" y="752" class="agent-copy">Plan · task branch · code</text>
      <text x="1865" y="782" class="agent-copy">Tests and evidence</text>
      <text x="1865" y="812" class="agent-copy">Approved scope only</text>
      <text x="1865" y="842" class="agent-copy">Selected engineering skills</text>
    </g>

    <g data-card="reviewer">
      <rect x="1455" y="910" width="335" height="210" rx="24" fill="url(#agent)" stroke="#4a6387" stroke-width="2"/>
      <text x="1495" y="960" class="agent-title">Reviewer</text>
      <text x="1495" y="1002" class="agent-copy">Code and agent work</text>
      <text x="1495" y="1032" class="agent-copy">Requirements and principles</text>
      <text x="1495" y="1062" class="agent-copy">Stable finding IDs</text>
      <text x="1495" y="1092" class="agent-copy">Human decision gate</text>
    </g>

    <g data-card="pipeline">
      <rect x="1825" y="910" width="335" height="210" rx="24" fill="url(#agent)" stroke="#4a6387" stroke-width="2"/>
      <text x="1865" y="960" class="agent-title">Pipeline Monitor</text>
      <text x="1865" y="1002" class="agent-copy">Guarded push · exact SHA</text>
      <text x="1865" y="1032" class="agent-copy">Build and PR evidence</text>
      <text x="1865" y="1062" class="agent-copy">Code/test/YAML remediation</text>
      <text x="1865" y="1092" class="agent-copy">Maximum three cycles</text>
    </g>

    <g data-card="health">
      <rect x="1455" y="1160" width="705" height="180" rx="24" fill="#173038" stroke="#4b8375" stroke-width="2"/>
      <text x="1500" y="1210" class="agent-title">Health Check Agent</text>
      <text x="1500" y="1252" class="agent-copy">Diagnoses failures and explicit ecosystem source changes</text>
      <text x="1500" y="1284" class="agent-copy">Bounded repair · full validation · affected-agent-only retry</text>
      <text x="1500" y="1316" class="agent-copy">Product repositories remain Developer-owned</text>
    </g>

    <g data-card="compiled-agents">
      <rect x="1455" y="1380" width="705" height="130" rx="24" fill="#182944" stroke="#536f9b" stroke-width="2"/>
      <text x="1500" y="1430" class="mono">${CODEX_HOME}/agents/*.toml</text>
      <text x="1500" y="1473" class="small">Seven standard and seven host-compatible agent definitions</text>
    </g>

    <g data-card="artifacts">
      <rect x="1455" y="1550" width="705" height="100" rx="24" fill="#182d36" stroke="#3f7468" stroke-width="2"/>
      <rect x="1935" y="1528" width="200" height="32" rx="10" class="extend"/>
      <text x="1952" y="1550" class="extend-text">+ ARTIFACT SCHEMA</text>
      <text x="1500" y="1595" class="mono">private checkpoints + validated outcomes</text>
      <text x="1500" y="1628" class="small">Routing · workspace sessions · role outcomes · final summary</text>
    </g>
  </g>

  <!-- External state -->
  <g filter="url(#shadow)">
    <g data-card="azure-boards">
      <rect x="2250" y="390" width="350" height="190" rx="24" fill="url(#external)" stroke="#665185" stroke-width="2"/>
      <text x="2290" y="445" class="box-title">Azure Boards</text>
      <text x="2290" y="490" class="copy">Tasks · requirements</text>
      <text x="2290" y="525" class="copy">Comments · assignment</text>
      <text x="2290" y="556" class="small">Manual and automated discovery</text>
    </g>

    <g data-card="pull-requests">
      <rect x="2250" y="630" width="350" height="250" rx="24" fill="url(#external)" stroke="#665185" stroke-width="2"/>
      <text x="2290" y="685" class="box-title">Pull requests</text>
      <text x="2290" y="730" class="copy">Revisions · threads · status</text>
      <text x="2290" y="770" class="small">ps-excel-agent</text>
      <text x="2290" y="800" class="small">ps-bicep</text>
      <text x="2290" y="830" class="small">ps-app-delfi</text>
      <text x="2290" y="860" class="small">Per-PR fingerprints and reports</text>
    </g>

    <g data-card="pipelines">
      <rect x="2250" y="920" width="350" height="190" rx="24" fill="url(#external)" stroke="#665185" stroke-width="2"/>
      <text x="2290" y="975" class="box-title">Pipelines</text>
      <text x="2290" y="1020" class="copy">Runs · stages · bounded logs</text>
      <text x="2290" y="1055" class="small">Exact branch and commit SHA</text>
      <text x="2290" y="1084" class="small">Allowlisted build-only queueing</text>
    </g>

    <g data-card="local-state">
      <rect x="2250" y="1150" width="350" height="250" rx="24" fill="#25203a" stroke="#665185" stroke-width="2"/>
      <text x="2290" y="1205" class="box-title">Local state</text>
      <text x="2290" y="1250" class="copy">%LOCALAPPDATA%</text>
      <text x="2290" y="1290" class="small">Task histories and revisions</text>
      <text x="2290" y="1320" class="small">Workspace manifests and snapshots</text>
      <text x="2290" y="1350" class="small">Lease queue and controller heartbeat</text>
      <text x="2290" y="1380" class="small">Review reports and PR status index</text>
    </g>

    <g data-card="authentication">
      <rect x="2250" y="1450" width="350" height="160" rx="24" fill="#1a2a2d" stroke="#47716b" stroke-width="2"/>
      <rect x="2470" y="1470" width="100" height="32" rx="10" class="extend"/>
      <text x="2487" y="1492" class="extend-text">+ AUTH</text>
      <text x="2290" y="1515" class="box-title">Azure CLI</text>
      <text x="2290" y="1558" class="copy">Credential store</text>
      <text x="2290" y="1590" class="small">No plaintext secrets in JSON</text>
    </g>
  </g>

  <!-- Source and runtime composition flow -->
  <path class="edge" d="M595 485H725"/>
  <path class="edge" d="M595 735H725"/>
  <path class="edge" d="M595 1040C650 1040 665 760 725 750"/>
  <path class="edge" d="M595 1325C655 1325 665 1035 725 1035"/>
  <path class="edge" d="M595 1555C650 1555 665 1570 725 1570"/>
  <path class="edge" d="M1030 590V630"/>

  <!-- Runtime to compiled agents and roles -->
  <path class="edge" d="M1335 735H1395V1445H1455"/>
  <path class="edge" d="M1335 1030H1395V505H1455"/>
  <path class="edge" d="M1335 1335H1395V1015H1455"/>
  <path class="edge" d="M1335 1570H1455"/>

  <!-- Agent chain -->
  <path class="edge-bi" d="M1622 620V660"/>
  <path class="edge-bi" d="M1992 620V660"/>
  <path class="edge-bi" d="M1622 870V910"/>
  <path class="edge-bi" d="M1992 870V910"/>
  <path class="edge-blue" d="M1622 1120C1622 1140 1700 1145 1740 1160"/>
  <path class="edge-blue" d="M1992 1120C1992 1140 1910 1145 1870 1160"/>
  <path class="edge" d="M1807 1340C1807 1355 1770 1365 1720 1380"/>
  <path class="edge" d="M1807 1510V1550"/>

  <!-- External adapters -->
  <path class="edge-violet" d="M2250 485H2190V372H1622V390"/>
  <path class="edge-violet" d="M2250 755H2190V895H1622V910"/>
  <path class="edge-violet" d="M2250 1015H2160"/>
  <path class="edge-blue" d="M2250 1275H2190V1600H2160"/>
  <path class="edge-dashed" d="M2250 1530H2190V520H2160"/>

  <!-- Gap labels -->
  <g>
    <rect x="610" y="440" width="100" height="34" rx="11" class="label-bg"/>
    <text x="660" y="463" text-anchor="middle" class="label">validate</text>
    <rect x="610" y="690" width="100" height="34" rx="11" class="label-bg"/>
    <text x="660" y="713" text-anchor="middle" class="label">compose</text>
    <rect x="610" y="995" width="100" height="34" rx="11" class="label-bg"/>
    <text x="660" y="1018" text-anchor="middle" class="label">skills</text>
    <rect x="610" y="1510" width="100" height="34" rx="11" class="label-bg"/>
    <text x="660" y="1533" text-anchor="middle" class="label">UI/docs</text>
  </g>
</svg>
